<svg width="160" height="45" fill="none" xmlns="http://www.w3.org/2000/svg"><path d="M149.045 30.487c-4.246-.142-8.048-1.385-11.424-3.97-.817-.622-.977-1.209-.346-2.061.799-1.075 1.537-2.203 2.301-3.305.763-1.102.994-1.057 2.194-.515 1.981.906 3.979 1.82 6.067 2.398 1.066.293 2.354.01 3.473-.284.471-.124 1.022-.924 1.057-1.448.027-.4-.657-1.093-1.128-1.217-1.865-.489-3.784-.764-5.667-1.181-1.004-.231-2.017-.525-2.967-.915-3.838-1.59-5.588-4.336-5.33-8.253.24-3.73 2.665-6.636 6.52-7.55 5.09-1.209 9.887-.507 14.222 2.602 1.208.87 1.27 1.155.435 2.354a340.732 340.732 0 01-2.114 3.02c-.897 1.27-1.021 1.297-2.327.533-2.159-1.27-4.451-2.06-6.991-1.883-.329.027-.72 0-.977.16-.462.302-1.12.693-1.164 1.11-.045.382.533 1.066.977 1.226 1.528.542 3.127.889 4.69 1.35 1.599.471 3.26.818 4.744 1.52 3.42 1.625 5.09 4.797 4.637 8.394-.489 3.953-2.621 6.396-6.476 7.267-1.439.329-2.931.426-4.397.63l-.009.018zM.01 15.377C.01 6.583 7.607-.027 16.215.907c5.161.559 8.848 3.144 11.557 7.417.595.941.515 1.234-.524 1.67-1.475.604-2.976 1.155-4.442 1.776-.95.409-1.545.187-2.158-.675-2.878-4.006-8.36-4.317-11.29-.693-2.604 3.225-2.284 7.853.71 10.367 3.26 2.736 7.524 2.283 10.375-1.101.812-.96 1.795-1.212 2.95-.755 1.35.532 2.691 1.065 4.041 1.598.693.276.916.702.49 1.395-2.977 4.886-7.25 7.63-13.015 7.675-5.587.045-9.976-2.336-12.96-7.106C.578 20.28-.097 17.846.01 15.377zM110.607 11.593c0-2.728.027-5.455-.017-8.182-.018-.95.319-1.359 1.296-1.332 1.564.044 3.127.053 4.691 0 1.039-.036 1.448.31 1.439 1.421a626.585 626.585 0 000 14.116c.018 1.092.178 2.256.586 3.25.738 1.813 2.843 2.817 4.673 2.488 2.309-.426 3.784-1.883 3.891-4.095.115-2.345.071-4.708.08-7.053.008-2.879 0-5.757 0-8.626 0-1.324.159-1.475 1.483-1.484 1.599 0 3.198.01 4.797 0 .835 0 1.199.347 1.199 1.217-.017 5.304.169 10.616-.053 15.91-.338 8.217-6.769 11.726-13.467 11.024-5.552-.586-9.088-3.509-10.18-8.377-.444-1.972-.338-4.068-.418-6.12-.053-1.377-.009-2.763-.009-4.149l.009-.008zM51.32 14.915c0-3.42.916-6.618 2.506-9.39V2.541c0-.889-.382-1.306-1.27-1.297-1.564.017-3.128 0-4.691 0-1.35 0-1.572.213-1.572 1.536 0 2.656-.027 5.304.008 7.96.01.977-.4 1.341-1.332 1.332-2.274-.026-4.54 0-6.813-.009-1.253 0-1.502-.257-1.51-1.51-.01-2.576 0-5.152 0-7.737 0-1.448-.107-1.564-1.502-1.572-1.492 0-2.976.044-4.468-.018-1.075-.045-1.448.382-1.43 1.439.035 4.184.017 8.368.017 12.552 0 4.184.018 8.297-.017 12.445 0 .986.257 1.44 1.323 1.395a61.73 61.73 0 014.797 0c.968.027 1.315-.337 1.288-1.315-.053-2.39 0-4.779-.026-7.177-.01-1.04.408-1.484 1.474-1.457 2.274.044 4.54.035 6.814 0 1.004-.018 1.394.39 1.386 1.403-.045 2.39.017 4.78-.027 7.178-.018 1.022.39 1.404 1.395 1.368 1.634-.053 3.277-.035 4.912 0 .933.018 1.244-.409 1.244-1.288v-3.464a18.794 18.794 0 01-2.505-9.39zM110.359 28.435a339.25 339.25 0 00-5.126-6.636c-.657-.817-.586-1.385.24-2.043 3.251-2.585 4.432-7.168 2.985-11.344-1.368-3.935-4.735-6.298-9.052-6.316-3.874-.017-7.738 0-11.61 0-1.289 0-1.467.178-1.467 1.502v1.359a18.837 18.837 0 012.852 9.958c0 3.66-1.057 7.062-2.852 9.958v3.482c0 1.253.276 1.528 1.493 1.537 1.528 0 3.056-.026 4.575.009 1.039.027 1.5-.373 1.474-1.448-.044-1.643-.009-3.287-.009-4.93 0-1.572.835-2.159 2.283-1.501.471.213.898.648 1.226 1.083a257.433 257.433 0 014.149 5.686c.55.772 1.252 1.11 2.176 1.101 1.972-.018 3.944.018 5.916-.018.4 0 .791-.23 1.182-.355-.142-.364-.213-.782-.444-1.084h.009zM98.695 14.906c-1.19.036-2.38 0-3.571.009-.888.009-1.288-.4-1.262-1.297.027-1.12.027-2.239 0-3.358-.017-.835.338-1.252 1.2-1.226.666.027 1.341 0 2.007 0h1.564c1.759.01 2.896 1.164 2.94 2.94.036 1.617-1.181 2.879-2.87 2.923l-.008.01zM4.879 44.505c-2.363 0-4.29-1.786-4.29-4.104 0-2.319 1.9-4.077 4.263-4.077 1.475 0 2.772.657 3.58 1.856.267.382.471.835.551 1.288H6.807c-.32-.808-1.058-1.377-1.964-1.377-1.323 0-2.176 1.084-2.176 2.301s.853 2.345 2.185 2.345c.915 0 1.59-.55 1.955-1.332h2.176c-.47 1.865-2.14 3.1-4.113 3.1h.009zM14.153 44.505c-2.3 0-4.273-1.723-4.273-3.997 0-.587.098-1.137.32-1.68.124-.31.32-.621.524-.888.835-1.066 2.052-1.616 3.438-1.616 2.372 0 4.3 1.767 4.3 4.095 0 2.327-1.928 4.095-4.309 4.095v-.009zm.018-6.414c-1.333 0-2.221 1.066-2.221 2.301s.888 2.345 2.248 2.345c1.359 0 2.185-1.11 2.185-2.31 0-1.199-.88-2.336-2.212-2.336zM26.492 44.354l.062-5.898-.018-.018-1.74 5.925h-1.378l-1.74-5.925-.019.017.063 5.899h-1.91v-7.888h2.673l1.617 5.188h.018l1.59-5.188h2.683v7.888h-1.91.009zM36.84 44.354l.063-5.898-.018-.018-1.74 5.925h-1.378l-1.74-5.925-.019.017.063 5.899h-1.91v-7.888h2.673l1.617 5.188h.018l1.59-5.188h2.683v7.888h-1.91.009zM45.91 43.652c-.612.604-1.403.853-2.273.853-.871 0-1.75-.23-2.346-.844-.737-.755-.817-1.43-.817-2.425v-4.761h2.079v4.761c0 .71.124 1.501 1.057 1.501.933 0 1.03-.755 1.03-1.501v-4.761h2.079v4.761c0 .933-.107 1.732-.817 2.416h.009zM53.497 44.354l-3.1-4.797h-.027l.053 4.797h-1.99v-7.888h1.795l3.145 4.956.017-.017-.089-4.93h1.99v7.888h-1.803l.009-.009zM57.05 44.354v-7.888h2.079v7.888H57.05zM63.775 38.242v6.112h-2.079v-6.112h-1.608v-1.767h5.277v1.767h-1.59zM70.517 41.485v2.869H68.44v-2.87l-2.434-5.018h2.256l1.208 3.162 1.217-3.162h2.23l-2.408 5.019h.01zM82.243 44.354V41.2h-2.665v3.154H77.5v-7.888h2.08v2.958h2.664v-2.958h2.079v7.888h-2.079zM86.072 44.354v-7.888h4.521v1.767h-2.531v1.226h2.451v1.768h-2.451v1.35h2.531v1.768h-4.521v.009zM97.345 44.354l-.4-1.137H94.12l-.426 1.137h-2.23l3.269-7.888h1.634l3.234 7.888h-2.256zm-1.777-5.437h-.036l-.835 2.692h1.706l-.835-2.692zM100.596 44.354v-7.888h2.079v6.111h2.407v1.768h-4.486v.009zM108.6 38.242v6.112h-2.079v-6.112h-1.608v-1.767h5.277v1.767h-1.59zM115.893 44.354V41.2h-2.665v3.154h-2.079v-7.888h2.079v2.958h2.665v-2.958h2.078v7.888h-2.078zM128.454 41.2c-.702.596-1.466.684-2.372.684h-.897v2.47h-1.99v-7.888h2.665c.835 0 1.839.035 2.505.577.639.524.959 1.28.959 2.088 0 .728-.284 1.58-.853 2.07h-.017zm-2.505-2.958h-.773v1.875h.844c.684 0 1.297-.151 1.297-.95 0-.8-.693-.925-1.377-.925h.009zM130.417 44.354v-7.888h2.079v6.111h2.407v1.768h-4.486v.009zM141.414 44.354l-.399-1.137h-2.825l-.427 1.137h-2.229l3.269-7.888h1.634l3.234 7.888h-2.257zm-1.776-5.437h-.036l-.835 2.692h1.706l-.835-2.692zM149.702 44.354l-3.1-4.797h-.026l.053 4.797h-1.99v-7.888h1.794l3.145 4.956.018-.017-.089-4.93h1.99v7.888h-1.803l.008-.009zM155.805 44.505c-1.634 0-2.931-.817-2.931-2.505v-.258h2.07c0 .516.239 1.075.843 1.075.427 0 .791-.328.791-.755 0-.515-.444-.684-.871-.861a17.182 17.182 0 00-.728-.303c-1.057-.426-1.99-1.021-1.99-2.256 0-1.475 1.466-2.318 2.852-2.318.79 0 1.679.284 2.203.897.417.497.515.933.542 1.554h-2.052c-.063-.435-.222-.764-.747-.764-.364 0-.71.25-.71.622 0 .116.009.231.08.329.195.32 1.261.728 1.608.87 1.074.48 1.901 1.022 1.901 2.257 0 1.652-1.235 2.416-2.834 2.416h-.027z" fill="#fff"/><mask id="a" style="mask-type:alpha" maskUnits="userSpaceOnUse" x="55" y="0" width="31" height="31"><circle cx="70.402" cy="15.324" r="15.324" fill="#D9D9D9"/></mask><g mask="url(#a)"><path d="M70.553 3.082a1.874 1.874 0 100-3.748 1.874 1.874 0 000 3.748zM71.85 8.235a2.86 2.86 0 011.625-2.576c-.755-.809-1.74-1.315-2.842-1.315s-2.114.515-2.87 1.341a2.848 2.848 0 01.444 4.815c1.049.462 1.928 1.36 2.452 2.514.516-1.12 1.35-2.008 2.354-2.478a2.856 2.856 0 01-1.172-2.301h.009z" fill="#EBECEC"/><path d="M79.125 3.082a1.874 1.874 0 100-3.748 1.874 1.874 0 000 3.748zM80.306 8.235a2.86 2.86 0 011.626-2.576c-.755-.809-1.741-1.315-2.843-1.315-1.101 0-2.114.515-2.869 1.341a2.848 2.848 0 01.444 4.815c1.049.462 1.928 1.36 2.452 2.514.515-1.12 1.35-2.008 2.354-2.478a2.856 2.856 0 01-1.172-2.301h.008zM61.971 3.082a1.874 1.874 0 100-3.748 1.874 1.874 0 000 3.748zM63.206 8.235a2.86 2.86 0 011.626-2.576c-.755-.809-1.741-1.315-2.843-1.315-1.101 0-2.114.515-2.869 1.341a2.848 2.848 0 01.444 4.815c1.048.462 1.928 1.36 2.452 2.514.515-1.12 1.35-2.008 2.354-2.478a2.856 2.856 0 01-1.173-2.301h.01z" fill="#9B9CA0"/><path d="M70.668 19.33a1.874 1.874 0 100-3.749 1.874 1.874 0 000 3.749zM71.85 24.58a2.86 2.86 0 011.625-2.576c-.755-.809-1.74-1.315-2.842-1.315s-2.114.515-2.87 1.341a2.848 2.848 0 01.444 4.815c1.049.462 1.928 1.36 2.452 2.514.516-1.12 1.35-2.008 2.354-2.478a2.855 2.855 0 01-1.172-2.301h.009zM79.365 19.33a1.874 1.874 0 100-3.749 1.874 1.874 0 000 3.749zM80.306 24.58a2.86 2.86 0 011.626-2.576c-.755-.809-1.741-1.315-2.843-1.315-1.101 0-2.114.515-2.869 1.341a2.848 2.848 0 01.444 4.815c1.049.462 1.928 1.36 2.452 2.514.515-1.12 1.35-2.008 2.354-2.478a2.856 2.856 0 01-1.172-2.301h.008zM61.971 19.33a1.874 1.874 0 100-3.749 1.874 1.874 0 000 3.749zM63.206 24.58a2.86 2.86 0 011.626-2.576c-.755-.809-1.741-1.315-2.843-1.315-1.101 0-2.114.515-2.869 1.341a2.848 2.848 0 01.444 4.815c1.048.462 1.928 1.36 2.452 2.514.515-1.12 1.35-2.008 2.354-2.478a2.855 2.855 0 01-1.173-2.301h.01z" fill="#fff"/><path d="M66.36 26.366a1.874 1.874 0 100-3.75 1.874 1.874 0 000 3.75zM74.781 26.366a1.874 1.874 0 100-3.75 1.874 1.874 0 000 3.75zM83.504 26.463a1.972 1.972 0 100-3.944 1.972 1.972 0 000 3.944zM57.69 26.366a1.874 1.874 0 100-3.75 1.874 1.874 0 000 3.75zM65.036 1.226c0 .924-.444 1.741-1.128 2.265.746.329 1.386.88 1.892 1.572.169-.026.338-.053.515-.053.205 0 .4.027.596.062.488-.675 1.092-1.217 1.803-1.545a2.855 2.855 0 01-1.173-2.301 2.86 2.86 0 011.626-2.576c-.755-.809-1.741-1.315-2.843-1.315-1.101 0-2.114.515-2.869 1.341a2.849 2.849 0 011.572 2.55h.01zM73.502 1.226c0 .924-.444 1.741-1.128 2.265.746.329 1.386.88 1.892 1.572.169-.026.337-.053.515-.053.204 0 .4.027.595.062.489-.675 1.093-1.217 1.804-1.545a2.856 2.856 0 01-1.173-2.301 2.86 2.86 0 011.626-2.576c-.755-.809-1.741-1.315-2.843-1.315-1.102 0-2.114.515-2.87 1.341a2.849 2.849 0 011.573 2.55h.009z" fill="#CECFD0"/><path d="M65.036 17.447c0 .977-.497 1.83-1.243 2.345.826.266 1.545.808 2.114 1.51.142-.018.275-.044.417-.044.196 0 .391.017.578.062a4.763 4.763 0 011.91-1.564 2.82 2.82 0 01-1.209-2.31 2.836 2.836 0 012.506-2.815c-.596-1.892-2.061-3.234-3.794-3.234-1.732 0-3.197 1.342-3.793 3.234a2.836 2.836 0 012.505 2.816h.01zM73.715 17.482c0 .977-.497 1.83-1.243 2.345.826.267 1.545.809 2.114 1.51.142-.017.275-.044.417-.044.196 0 .391.018.578.062a4.761 4.761 0 011.91-1.563 2.82 2.82 0 01-1.209-2.31 2.836 2.836 0 012.505-2.816c-.595-1.892-2.06-3.233-3.793-3.233-1.732 0-3.198 1.341-3.793 3.233a2.836 2.836 0 012.505 2.816h.01z" fill="#EBECEC"/><path d="M82.216 17.447c0 .977-.497 1.83-1.243 2.345.826.266 1.546.808 2.114 1.51.142-.018.275-.044.417-.044.196 0 .391.017.578.062a4.763 4.763 0 011.91-1.564 2.82 2.82 0 01-1.208-2.31 2.836 2.836 0 012.505-2.815c-.595-1.892-2.061-3.234-3.793-3.234-1.733 0-3.198 1.342-3.793 3.234a2.836 2.836 0 012.504 2.816h.01zM56.41 17.482c0 .977-.497 1.83-1.243 2.345.826.267 1.546.809 2.114 1.51.142-.017.276-.044.418-.044.195 0 .39.018.577.062a4.761 4.761 0 011.91-1.563 2.82 2.82 0 01-1.208-2.31 2.836 2.836 0 012.505-2.816c-.595-1.892-2.061-3.233-3.793-3.233-1.732 0-3.198 1.341-3.793 3.233a2.836 2.836 0 012.505 2.816h.009z" fill="#B0B1B3"/><path d="M73.715 33.676c0 .977-.497 1.83-1.243 2.346.826.266 1.545.808 2.114 1.51.142-.018.275-.045.417-.045.196 0 .391.018.578.062a4.761 4.761 0 011.91-1.563 2.82 2.82 0 01-1.209-2.31 2.836 2.836 0 012.505-2.816c-.595-1.892-2.06-3.233-3.793-3.233-1.732 0-3.198 1.341-3.793 3.233a2.836 2.836 0 012.505 2.816h.01zM65.072 33.676c0 .977-.498 1.83-1.244 2.346.826.266 1.546.808 2.114 1.51.143-.018.276-.045.418-.045.195 0 .39.018.577.062a4.761 4.761 0 011.91-1.563 2.82 2.82 0 01-1.208-2.31 2.836 2.836 0 012.505-2.816c-.595-1.892-2.06-3.233-3.793-3.233-1.732 0-3.198 1.341-3.793 3.233a2.836 2.836 0 012.505 2.816h.009z" fill="#CECFD0"/><path d="M57.69 10.1a1.874 1.874 0 100-3.748 1.874 1.874 0 000 3.748z" fill="#B0B1B3"/><path d="M66.324 10.1a1.874 1.874 0 100-3.748 1.874 1.874 0 000 3.748zM74.781 10.1a1.874 1.874 0 100-3.748 1.874 1.874 0 000 3.748z" fill="#EBECEC"/><path d="M83.504 10.1a1.874 1.874 0 100-3.748 1.874 1.874 0 000 3.748z" fill="#B0B1B3"/></g></svg>