<svg width="189" height="53" fill="none" xmlns="http://www.w3.org/2000/svg"><path d="M176.126 35.823c-4.99-.167-9.457-1.629-13.423-4.666-.961-.73-1.149-1.42-.407-2.422.939-1.263 1.805-2.588 2.703-3.883.898-1.294 1.169-1.242 2.578-.605 2.328 1.065 4.676 2.14 7.129 2.818 1.253.345 2.766.01 4.081-.334.553-.146 1.201-1.085 1.242-1.701.032-.47-.772-1.284-1.325-1.43-2.192-.574-4.447-.898-6.66-1.388-1.179-.272-2.369-.616-3.486-1.075-4.509-1.869-6.565-5.094-6.262-9.697.281-4.384 3.131-7.797 7.661-8.872 5.981-1.42 11.617-.595 16.711 3.058 1.419 1.023 1.492 1.357.511 2.766-.824 1.19-1.649 2.37-2.484 3.549-1.054 1.492-1.2 1.524-2.735.626-2.536-1.492-5.229-2.421-8.214-2.213-.386.032-.846 0-1.148.188-.543.355-1.315.814-1.368 1.305-.052.449.627 1.253 1.148 1.44 1.796.637 3.675 1.044 5.512 1.587 1.878.553 3.83.96 5.573 1.785 4.019 1.91 5.981 5.636 5.449 9.864-.574 4.644-3.079 7.515-7.609 8.538-1.691.386-3.445.5-5.167.74l-.01.022zM1.01 18.068c0-10.334 8.925-18.1 19.04-17.003 6.063.657 10.395 3.695 13.579 8.715.699 1.107.605 1.451-.616 1.963-1.733.71-3.497 1.357-5.219 2.087-1.117.48-1.816.22-2.536-.793-3.382-4.708-9.822-5.073-13.267-.814-3.058 3.789-2.682 9.227.835 12.18 3.83 3.216 8.841 2.683 12.191-1.294.954-1.127 2.109-1.423 3.466-.887 1.586.626 3.162 1.253 4.75 1.879.813.323 1.074.825.573 1.639-3.496 5.74-8.517 8.966-15.291 9.018-6.566.052-11.722-2.745-15.229-8.35-1.607-2.579-2.4-5.438-2.275-8.34zM130.961 13.621c0-3.204.032-6.408-.021-9.613-.021-1.117.376-1.597 1.524-1.565 1.837.052 3.674.062 5.511 0 1.222-.042 1.702.365 1.691 1.67a739.496 739.496 0 000 16.585c.021 1.284.209 2.651.689 3.82.867 2.13 3.34 3.31 5.491 2.923 2.713-.501 4.446-2.213 4.571-4.812.136-2.755.084-5.532.094-8.287.011-3.382 0-6.764 0-10.136 0-1.555.188-1.732 1.743-1.743 1.879 0 3.758.01 5.637 0 .981 0 1.409.407 1.409 1.43-.021 6.232.198 12.473-.063 18.694-.396 9.655-7.953 13.778-15.823 12.954-6.524-.69-10.678-4.123-11.962-9.843-.522-2.317-.397-4.78-.491-7.192-.062-1.618-.01-3.246-.01-4.874l.01-.01zM61.3 17.525c0-4.018 1.074-7.776 2.943-11.033V2.985c0-1.044-.45-1.534-1.493-1.524-1.837.021-3.674 0-5.511 0-1.586 0-1.847.25-1.847 1.806 0 3.12-.032 6.231.01 9.352.01 1.148-.47 1.576-1.566 1.566-2.672-.031-5.333 0-8.005-.01-1.472 0-1.765-.303-1.775-1.775-.01-3.027 0-6.054 0-9.091 0-1.702-.125-1.837-1.764-1.848-1.754 0-3.497.052-5.25-.02-1.263-.053-1.702.448-1.68 1.69.041 4.917.02 9.833.02 14.749s.021 9.749-.02 14.623c0 1.159.302 1.691 1.555 1.639 1.878-.084 3.757-.063 5.636 0 1.138.031 1.545-.397 1.514-1.545-.063-2.808 0-5.615-.032-8.434-.01-1.22.48-1.743 1.733-1.711 2.672.052 5.334.041 8.006 0 1.18-.021 1.638.459 1.628 1.649-.052 2.808.02 5.615-.031 8.434-.021 1.2.459 1.649 1.638 1.607 1.92-.063 3.852-.042 5.773 0 1.095.02 1.46-.48 1.46-1.514v-4.07A22.082 22.082 0 0161.3 17.525zM130.669 33.411a395.727 395.727 0 00-6.023-7.797c-.772-.96-.689-1.628.282-2.4 3.82-3.038 5.209-8.424 3.507-13.33-1.607-4.623-5.563-7.4-10.636-7.42-4.551-.022-9.091 0-13.642 0-1.514 0-1.722.208-1.722 1.763v1.597c2.108 3.403 3.35 7.4 3.35 11.701 0 4.3-1.242 8.298-3.35 11.7v4.093c0 1.471.323 1.795 1.753 1.805 1.796 0 3.591-.031 5.376.01 1.221.032 1.764-.438 1.732-1.7-.052-1.932-.01-3.863-.01-5.794 0-1.847.981-2.536 2.683-1.764.553.25 1.054.762 1.44 1.274a302.029 302.029 0 014.874 6.68c.648.908 1.472 1.305 2.558 1.294 2.317-.02 4.634.021 6.951-.02.47 0 .929-.272 1.388-.418-.167-.428-.25-.919-.521-1.274h.01zm-13.705-15.896c-1.399.041-2.797 0-4.196.01-1.044.01-1.513-.47-1.482-1.524.031-1.315.031-2.63 0-3.945-.021-.981.397-1.472 1.409-1.44.783.03 1.576 0 2.359 0h1.837c2.067.01 3.403 1.367 3.455 3.454.042 1.9-1.388 3.382-3.371 3.434l-.011.01z" fill="#534588"/><path d="M6.73 52.294c-2.776 0-5.041-2.098-5.041-4.823 0-2.724 2.234-4.79 5.01-4.79 1.733 0 3.257.772 4.207 2.18.313.45.553.982.647 1.514H8.995c-.375-.95-1.242-1.618-2.306-1.618-1.556 0-2.558 1.274-2.558 2.704 0 1.43 1.002 2.755 2.568 2.755 1.075 0 1.869-.647 2.296-1.565h2.558c-.554 2.192-2.516 3.642-4.833 3.642h.01zM17.628 52.294c-2.704 0-5.021-2.025-5.021-4.698 0-.688.115-1.336.376-1.972a4.58 4.58 0 01.615-1.044c.982-1.253 2.412-1.9 4.04-1.9 2.787 0 5.052 2.077 5.052 4.812 0 2.735-2.265 4.812-5.063 4.812v-.01zm.02-7.537c-1.565 0-2.609 1.253-2.609 2.704 0 1.45 1.044 2.755 2.64 2.755 1.598 0 2.568-1.304 2.568-2.714 0-1.409-1.033-2.745-2.599-2.745zM32.126 52.116l.073-6.93-.021-.022-2.046 6.962h-1.618l-2.046-6.962-.02.021.072 6.93h-2.244v-9.268h3.142l1.9 6.096h.02l1.87-6.096h3.151v9.269h-2.244.01zM44.286 52.116l.073-6.93-.021-.022-2.046 6.962h-1.618l-2.046-6.962-.02.021.073 6.93h-2.244v-9.268h3.141l1.9 6.096h.02l1.87-6.096h3.151v9.269h-2.244.01zM54.943 51.291c-.72.71-1.65 1.002-2.672 1.002-1.023 0-2.057-.27-2.756-.991-.866-.887-.96-1.68-.96-2.85v-5.594h2.442v5.594c0 .835.146 1.764 1.242 1.764s1.211-.887 1.211-1.764v-5.594h2.442v5.594c0 1.096-.125 2.036-.96 2.84h.01zM63.857 52.116l-3.643-5.636h-.032l.063 5.636h-2.338v-9.269h2.109l3.695 5.825.02-.021-.104-5.793h2.338v9.268h-2.119l.01-.01zM68.032 52.116v-9.269h2.442v9.269h-2.442zM75.933 44.935v7.181h-2.442v-7.181H71.6v-2.077h6.2v2.077h-1.868zM83.855 48.745v3.37h-2.442v-3.37l-2.86-5.898h2.651l1.42 3.716 1.43-3.716h2.62l-2.829 5.898h.01zM97.633 52.116V48.41h-3.131v3.706H92.06v-9.269h2.442v3.476h3.131v-3.476h2.443v9.269h-2.443zM102.132 52.116v-9.269h5.313v2.077h-2.975v1.44h2.881v2.078h-2.881v1.586h2.975v2.078h-5.313v.01zM115.378 52.116l-.47-1.336h-3.319l-.501 1.336h-2.62l3.841-9.269h1.92l3.8 9.269h-2.651zm-2.088-6.388h-.042l-.981 3.163h2.004l-.981-3.163zM119.198 52.116v-9.269h2.442v7.181h2.829v2.078h-5.271v.01zM128.602 44.935v7.181h-2.442v-7.181h-1.889v-2.077h6.2v2.077h-1.869zM137.172 52.116V48.41h-3.132v3.706h-2.442v-9.269h2.442v3.476h3.132v-3.476h2.442v9.269h-2.442zM151.931 48.41c-.825.7-1.722.804-2.787.804h-1.054v2.902h-2.338v-9.269h3.131c.981 0 2.161.042 2.943.679.752.615 1.128 1.503 1.128 2.452 0 .856-.334 1.858-1.002 2.432h-.021zm-2.944-3.475h-.908v2.202h.992c.804 0 1.524-.177 1.524-1.117s-.814-1.085-1.618-1.085h.01zM154.238 52.116v-9.269h2.442v7.181h2.829v2.078h-5.271v.01zM167.16 52.116l-.47-1.336h-3.319l-.501 1.336h-2.62l3.841-9.269h1.92l3.8 9.269h-2.651zm-2.088-6.388h-.042l-.981 3.163h2.004l-.981-3.163zM176.898 52.116l-3.643-5.636h-.031l.063 5.636h-2.338v-9.269h2.108l3.695 5.825.021-.021-.105-5.793h2.338v9.268h-2.118l.01-.01zM184.069 52.294c-1.921 0-3.445-.96-3.445-2.944v-.303h2.432c0 .606.282 1.263.992 1.263.501 0 .929-.386.929-.887 0-.605-.522-.804-1.023-1.012-.282-.126-.564-.24-.856-.355-1.242-.501-2.338-1.2-2.338-2.651 0-1.733 1.722-2.725 3.351-2.725.929 0 1.972.334 2.588 1.054.491.585.606 1.096.637 1.827h-2.411c-.073-.511-.261-.898-.877-.898-.428 0-.835.293-.835.731 0 .136.01.272.094.386.229.376 1.482.856 1.889 1.023 1.263.564 2.234 1.2 2.234 2.651 0 1.942-1.451 2.84-3.33 2.84h-.031z" fill="#0076BB"/><mask id="a" style="mask-type:alpha" maskUnits="userSpaceOnUse" x="65" y="0" width="37" height="37"><circle cx="83.72" cy="18.005" r="18.005" fill="#D9D9D9"/></mask><g mask="url(#a)"><path d="M83.897 3.622a2.202 2.202 0 100-4.405 2.202 2.202 0 000 4.405zM85.421 9.676a3.36 3.36 0 011.91-3.027c-.887-.95-2.046-1.545-3.34-1.545s-2.484.606-3.371 1.576a3.347 3.347 0 011.847 2.996 3.346 3.346 0 01-1.325 2.662c1.231.542 2.265 1.597 2.88 2.953.606-1.315 1.587-2.359 2.766-2.912a3.355 3.355 0 01-1.377-2.703h.01z" fill="#0076BB"/><path d="M93.97 3.622a2.202 2.202 0 100-4.405 2.202 2.202 0 000 4.405zM95.358 9.676a3.36 3.36 0 011.91-3.027c-.887-.95-2.046-1.545-3.34-1.545s-2.484.606-3.371 1.576a3.347 3.347 0 011.847 2.996 3.346 3.346 0 01-1.326 2.662c1.232.542 2.265 1.597 2.881 2.953.606-1.315 1.587-2.359 2.766-2.912a3.355 3.355 0 01-1.377-2.703h.01zM73.814 3.622a2.202 2.202 0 100-4.405 2.202 2.202 0 000 4.405zM75.265 9.676a3.36 3.36 0 011.91-3.027c-.887-.95-2.046-1.545-3.34-1.545s-2.484.606-3.371 1.576a3.347 3.347 0 011.847 2.996 3.346 3.346 0 01-1.325 2.662c1.231.542 2.265 1.597 2.88 2.953.606-1.315 1.587-2.359 2.766-2.912a3.355 3.355 0 01-1.377-2.703h.01z" fill="#6DBE4B"/><path d="M84.033 22.713a2.202 2.202 0 100-4.405 2.202 2.202 0 000 4.405zM85.421 28.881a3.36 3.36 0 011.91-3.027c-.887-.95-2.046-1.544-3.34-1.544s-2.484.605-3.371 1.576a3.347 3.347 0 011.847 2.995 3.346 3.346 0 01-1.325 2.662c1.231.543 2.265 1.597 2.88 2.954.606-1.315 1.587-2.359 2.766-2.912a3.355 3.355 0 01-1.377-2.704h.01zM94.251 22.713a2.202 2.202 0 100-4.405 2.202 2.202 0 000 4.405zM95.358 28.881a3.36 3.36 0 011.91-3.027c-.887-.95-2.046-1.544-3.34-1.544s-2.484.605-3.371 1.576a3.347 3.347 0 011.847 2.995 3.346 3.346 0 01-1.326 2.662c1.232.543 2.265 1.597 2.881 2.954.606-1.315 1.587-2.359 2.766-2.912a3.355 3.355 0 01-1.377-2.704h.01zM73.814 22.713a2.202 2.202 0 100-4.405 2.202 2.202 0 000 4.405zM75.265 28.881a3.36 3.36 0 011.91-3.027c-.887-.95-2.046-1.544-3.34-1.544s-2.484.605-3.371 1.576a3.347 3.347 0 011.847 2.995 3.346 3.346 0 01-1.325 2.662c1.231.543 2.265 1.597 2.88 2.954.606-1.315 1.587-2.359 2.766-2.912a3.355 3.355 0 01-1.377-2.704h.01z" fill="#534588"/><path d="M78.97 30.98a2.202 2.202 0 100-4.405 2.202 2.202 0 000 4.405zM88.866 30.98a2.202 2.202 0 100-4.405 2.202 2.202 0 000 4.405zM99.115 31.094a2.318 2.318 0 100-4.635 2.318 2.318 0 000 4.635zM68.783 30.98a2.202 2.202 0 100-4.405 2.202 2.202 0 000 4.405zM77.415 1.44a3.347 3.347 0 01-1.325 2.662c.876.386 1.628 1.033 2.223 1.848.198-.032.397-.063.605-.063.24 0 .47.031.7.073.574-.793 1.284-1.43 2.119-1.816a3.355 3.355 0 01-1.378-2.704 3.36 3.36 0 011.91-3.027c-.887-.95-2.046-1.544-3.34-1.544s-2.484.605-3.372 1.576a3.347 3.347 0 011.848 2.995h.01zM87.362 1.44a3.347 3.347 0 01-1.325 2.662c.877.386 1.628 1.033 2.223 1.848.198-.032.397-.063.606-.063.24 0 .47.031.699.073.574-.793 1.284-1.43 2.119-1.816a3.355 3.355 0 01-1.378-2.704 3.36 3.36 0 011.91-3.027c-.887-.95-2.046-1.544-3.34-1.544s-2.484.605-3.371 1.576a3.347 3.347 0 011.847 2.995h.01z" fill="#3DB3E3"/><path d="M77.415 20.5c0 1.148-.584 2.15-1.461 2.756.97.313 1.816.95 2.484 1.774.167-.021.324-.052.49-.052.23 0 .46.02.68.073a5.596 5.596 0 012.243-1.837 3.313 3.313 0 01-1.42-2.714 3.332 3.332 0 012.944-3.309c-.699-2.223-2.421-3.8-4.457-3.8-2.035 0-3.757 1.577-4.457 3.8a3.332 3.332 0 012.944 3.309h.01zM87.613 20.542c0 1.148-.585 2.15-1.461 2.755.97.313 1.816.95 2.484 1.775.167-.021.324-.053.49-.053.23 0 .46.021.679.074a5.595 5.595 0 012.244-1.838 3.312 3.312 0 01-1.42-2.713 3.332 3.332 0 012.944-3.31c-.7-2.222-2.422-3.798-4.457-3.798-2.035 0-3.757 1.576-4.457 3.799a3.332 3.332 0 012.944 3.309h.01z" fill="#0076BB"/><path d="M97.602 20.5c0 1.148-.585 2.15-1.461 2.756.97.313 1.816.95 2.484 1.774.167-.021.323-.052.49-.052.23 0 .46.02.679.073a5.594 5.594 0 012.244-1.837 3.312 3.312 0 01-1.419-2.714 3.331 3.331 0 012.943-3.309c-.699-2.223-2.422-3.8-4.457-3.8-2.035 0-3.758 1.577-4.457 3.8a3.332 3.332 0 012.944 3.309h.01zM67.28 20.542c0 1.148-.584 2.15-1.461 2.755.97.313 1.816.95 2.484 1.775.167-.021.324-.053.49-.053.23 0 .46.021.68.074a5.597 5.597 0 012.243-1.838 3.312 3.312 0 01-1.42-2.713 3.332 3.332 0 012.944-3.31c-.7-2.222-2.421-3.798-4.457-3.798-2.035 0-3.757 1.576-4.457 3.799a3.332 3.332 0 012.944 3.309h.01z" fill="#00AF86"/><path d="M87.613 39.57c0 1.148-.585 2.15-1.461 2.755.97.313 1.816.95 2.484 1.775.167-.021.324-.053.49-.053.23 0 .46.021.679.074a5.595 5.595 0 012.244-1.838 3.312 3.312 0 01-1.42-2.713 3.332 3.332 0 012.944-3.31c-.7-2.222-2.422-3.798-4.457-3.798-2.035 0-3.757 1.576-4.457 3.799a3.332 3.332 0 012.944 3.309h.01zM77.457 39.57c0 1.148-.584 2.15-1.461 2.755.97.313 1.816.95 2.484 1.775.167-.021.323-.053.49-.053.23 0 .46.021.679.074a5.595 5.595 0 012.244-1.838 3.312 3.312 0 01-1.42-2.713 3.332 3.332 0 012.944-3.31c-.7-2.222-2.421-3.798-4.457-3.798-2.035 0-3.757 1.576-4.457 3.799a3.332 3.332 0 012.944 3.309h.01z" fill="#3DB3E3"/><path d="M68.783 11.868a2.202 2.202 0 100-4.405 2.202 2.202 0 000 4.405z" fill="#00AF86"/><path d="M78.929 11.868a2.202 2.202 0 100-4.405 2.202 2.202 0 000 4.405zM88.866 11.868a2.202 2.202 0 100-4.405 2.202 2.202 0 000 4.405z" fill="#0076BB"/><path d="M99.115 11.868a2.202 2.202 0 100-4.405 2.202 2.202 0 000 4.405z" fill="#00AF86"/></g></svg>